{"title":"Amnesiac.2015.AR-SUB.DVDRip.XviD.AC3-N33B","uid":12226092,"size":1234480405,"categoryP":"video","categoryS":"movies","magnet":"?xt=urn:btih:de83dc4e798813bd3071e2da8455edd11565c366&amp;dn=Amnesiac.2015.AR-SUB.DVDRip.XviD.AC3-N33B&amp;tr=udp%3A%2F%2Ftracker.openbittorrent.com%3A80&amp;tr=udp%3A%2F%2Fopen.demonii.com%3A1337&amp;tr=udp%3A%2F%2Ftracker.coppersurfer.tk%3A6969&amp;tr=udp%3A%2F%2Fexodus.desync.com%3A6969","seeders":30,"leechers":13,"uploader":"xxxlavalxxx","files":4,"time":1439479307,"description":" &lt;a href=&quot;http://extraimago.com/image/qbo&quot; rel=&quot;nofollow&quot; target=&quot;_NEW&quot;&gt;http://extraimago.com/image/qbo&lt;/a&gt;\n &lt;a href=&quot;\nhttp://www.imdb.com/title/tt2837336/&quot; rel=&quot;nofollow&quot; target=&quot;_NEW&quot;&gt;\nhttp://www.imdb.com/title/tt2837336/&lt;/a&gt;\n\n\nThe story of a man who wakes up in bed suffering from memory loss after being in an accident, only to begin to suspect that his wife may not be his real wife and that a web of lies and deceit deepen inside the house where he soon finds himself a prisoner.\n\nDirector: Michael Polish\nWriters: Amy Kolquist, Mike Le\nStars: Kate Bosworth, Wes Bentley, Olivia Rose Keegan\nGenres: Drama | Horror | Mystery | Thriller\n\n\nAmnesiac.2015.AR-SUB.DVDRip.XviD.AC3-N33B\n &lt;a href=&quot;\nhttp://www.imdb.com/title/tt2837336/&quot; rel=&quot;nofollow&quot; target=&quot;_NEW&quot;&gt;\nhttp://www.imdb.com/title/tt2837336/&lt;/a&gt;\n\nGeneral\nComplete name: Amnesiac.2015.AR-SUB.DVDRip.XviD.AC3-N33B.avi\nFormat: AVI\nFormat/Info: Audio Video Interleave\nFile size: 1.11 GiB\nDuration: 1h 24mn\nOverall bit rate: 1 890 Kbps\n\nVideo\nID: 0\nFormat: MPEG-4 Visual\nFormat profile: Advanced Simple@L5\nFormat settings, BVOP: 2\nFormat settings, QPel: No\nFormat settings, GMC: No warppoints\nFormat settings, Matrix: Default (H.263)\nMuxing mode: Packed bitstream\nCodec ID: XVID\nCodec ID/Hint: XviD\nDuration: 1h 24mn\nBit rate: 1 498 Kbps\nWidth: 720 pixels\nHeight: 400 pixels\nDisplay aspect ratio: 16:9\nFrame rate: 23.976 fps\nColor space: YUV\nChroma subsampling: 4:2:0\nBit depth: 8 bits\nScan type: Progressive\nCompression mode: Lossy\nBits/(Pixel*Frame): 0.217\nStream size: 903 MiB (79%)\nWriting library: XviD 73\n\nAudio\nID: 1\nFormat: AC-3\nFormat/Info: Audio Coding 3\nMode extension: CM (complete main)\nFormat settings, Endianness: Big\nCodec ID: 2000\nDuration: 1h 24mn\nBit rate mode: Constant\nBit rate: 384 Kbps\nChannel(s): 6 channels\nChannel positions: Front: L C R, Side: L R, LFE\nSampling rate: 48.0 KHz\nCompression mode: Lossy\nStream size: 232 MiB (20%)\nAlignment: Aligned on interleaves\nInterleave, duration: 64 ms (1.53 video frames)\nInterleave, preload duration: 192 ms\nTitle: Amnesiac_track_1_english \n\n &lt;a href=&quot;\nhttp://extraimago.com/image/qbt&quot; rel=&quot;nofollow&quot; target=&quot;_NEW&quot;&gt;\nhttp://extraimago.com/image/qbt&lt;/a&gt; &lt;a href=&quot;\nhttp://extraimago.com/image/qbx&quot; rel=&quot;nofollow&quot; target=&quot;_NEW&quot;&gt;\nhttp://extraimago.com/image/qbx&lt;/a&gt; &lt;a href=&quot;\nhttp://extraimago.com/image/qb6&quot; rel=&quot;nofollow&quot; target=&quot;_NEW&quot;&gt;\nhttp://extraimago.com/image/qb6&lt;/a&gt; &lt;a href=&quot;\nhttp://extraimago.com/image/qbV&quot; rel=&quot;nofollow&quot; target=&quot;_NEW&quot;&gt;\nhttp://extraimago.com/image/qbV&lt;/a&gt; &lt;a href=&quot;\nhttp://extraimago.com/image/qbv&quot; rel=&quot;nofollow&quot; target=&quot;_NEW&quot;&gt;\nhttp://extraimago.com/image/qbv&lt;/a&gt;","torrent":{"xt":"urn:btih:de83dc4e798813bd3071e2da8455edd11565c366","amp;dn":"Amnesiac.2015.AR-SUB.DVDRip.XviD.AC3-N33B","amp;tr":["udp%3A%2F%2Ftracker.openbittorrent.com%3A80","udp%3A%2F%2Fopen.demonii.com%3A1337","udp%3A%2F%2Ftracker.coppersurfer.tk%3A6969","udp%3A%2F%2Fexodus.desync.com%3A6969"],"infoHash":"de83dc4e798813bd3071e2da8455edd11565c366","infoHashBuffer":{"type":"Buffer","data":[222,131,220,78,121,136,19,189,48,113,226,218,132,85,237,209,21,101,195,102]},"announce":[],"urlList":[]}}